<?xml version="1.0" encoding="utf-8"?>
<!-- Generator: Adobe Illustrator 21.0.2, SVG Export Plug-In . SVG Version: 6.00 Build 0)  -->
<svg version="1.1" id="Camada_1" xmlns="http://www.w3.org/2000/svg" xmlns:xlink="http://www.w3.org/1999/xlink" x="0px" y="0px"
	 viewBox="0 0 39.1 39.1" style="enable-background:new 0 0 39.1 39.1;" xml:space="preserve">
<path d="M39,0.9c-0.2-0.4-0.4-0.7-0.8-0.8C38,0,37.8,0,37.7,0h-7.1c-0.8,0-1.5,0.7-1.5,1.5c0,0.8,0.7,1.5,1.5,1.5h3.5l-7,7
	c-3-2.5-6.7-3.8-10.6-3.8c-4.4,0-8.6,1.7-11.7,4.8c-6.4,6.4-6.4,16.9,0,23.3c3,3.1,7.2,4.8,11.6,4.8c4.4,0,8.6-1.7,11.7-4.8
	c6.1-6.1,6.4-15.7,1-22.2l7-7v3.5c0,0.8,0.7,1.5,1.5,1.5s1.5-0.7,1.5-1.5V1.4C39.1,1.2,39.1,1,39,0.9z M25.8,32.2
	c-2.5,2.5-5.9,4-9.5,4c-3.6,0-7-1.4-9.5-4c-5.2-5.3-5.2-13.9,0-19.1c2.5-2.5,5.9-4,9.5-4c3.6,0,7,1.4,9.5,4
	C31.1,18.4,31.1,26.9,25.8,32.2z"/>
</svg>
