<?xml version="1.0" encoding="utf-8"?>
<!-- Generator: Adobe Illustrator 21.0.2, SVG Export Plug-In . SVG Version: 6.00 Build 0)  -->
<svg version="1.1" id="Camada_1" xmlns="http://www.w3.org/2000/svg" xmlns:xlink="http://www.w3.org/1999/xlink" x="0px" y="0px"
	 viewBox="0 0 33 48" style="enable-background:new 0 0 33 48;" xml:space="preserve">
<path d="M33,16.5C33,7.4,25.6,0,16.5,0S0,7.4,0,16.5c0,8.6,6.6,15.7,15,16.4v7.2h-3.5c-0.8,0-1.5,0.7-1.5,1.5c0,0.8,0.7,1.5,1.5,1.5
	H15v3.4c0,0.8,0.7,1.5,1.5,1.5s1.5-0.7,1.5-1.5v-3.4h3.5c0.8,0,1.5-0.7,1.5-1.5c0-0.8-0.7-1.5-1.5-1.5H18v-7.2
	C26.4,32.1,33,25.1,33,16.5z M16.5,30C9.1,30,3,23.9,3,16.5S9.1,3,16.5,3S30,9.1,30,16.5S23.9,30,16.5,30z"/>
</svg>
