<?xml version="1.0" encoding="utf-8"?>
<!-- Generator: Adobe Illustrator 21.0.2, SVG Export Plug-In . SVG Version: 6.00 Build 0)  -->
<svg version="1.1" id="Layer_1" xmlns="http://www.w3.org/2000/svg" xmlns:xlink="http://www.w3.org/1999/xlink" x="0px" y="0px"
	 viewBox="0 0 22 13" style="enable-background:new 0 0 22 13;" xml:space="preserve">
<g>
	<path d="M11,6c1.7,0,3-1.3,3-3s-1.3-3-3-3S8,1.3,8,3S9.3,6,11,6z"/>
	<path d="M11,8c-4.6,0-6,3.3-6,3.3V13h12v-1.7C17,11.3,15.6,8,11,8z"/>
	<circle cx="17.5" cy="2.5" r="2.5"/>
	<path d="M17.5,7c-1.2,0-2.1,0.3-2.8,0.8c2.3,1.1,3.2,3,3.2,3.2v0.1H22V9.8C22,9.7,20.9,7,17.5,7z"/>
	<circle cx="4.5" cy="2.5" r="2.5"/>
	<path d="M7.3,7.8C6.6,7.3,5.7,7,4.5,7C1.1,7,0,9.7,0,9.8v1.3h4.1V11C4.1,10.8,5,8.9,7.3,7.8z"/>
</g>
</svg>
